<?xml version="1.0" encoding="UTF-8" standalone="no"?>
<svg
   width="734.79999"
   height="848.50006"
   viewBox="0 0 194.41602 224.49901"
   fill="#0f0f0f"
   version="1.1"
   id="svg4"
   sodipodi:docname="OpenAI_Logo.svg"
   inkscape:version="1.1.2 (1:1.1+202202050950+0a00cf5339)"
   xmlns:inkscape="http://www.inkscape.org/namespaces/inkscape"
   xmlns:sodipodi="http://sodipodi.sourceforge.net/DTD/sodipodi-0.dtd"
   xmlns="http://www.w3.org/2000/svg"
   xmlns:svg="http://www.w3.org/2000/svg">
  <defs
     id="defs8" />
  <sodipodi:namedview
     id="namedview6"
     pagecolor="#ffffff"
     bordercolor="#666666"
     borderopacity="1.0"
     inkscape:pageshadow="2"
     inkscape:pageopacity="0.0"
     inkscape:pagecheckerboard="0"
     showgrid="false"
     inkscape:zoom="0.16824667"
     inkscape:cx="1551.2937"
     inkscape:cy="166.42231"
     inkscape:window-width="1872"
     inkscape:window-height="1051"
     inkscape:window-x="689"
     inkscape:window-y="1440"
     inkscape:window-maximized="1"
     inkscape:current-layer="g1831" />
  <path
     d="m 89.084496,154.07352 v 0.014 c -0.08482,0 -0.170189,0.014 -0.25503,0.014 -0.08482,0 -0.170199,-0.014 -0.25504,-0.014 -5.058024,0 -8.189224,3.15982 -8.189224,8.2319 v 2.49362 c 0,4.88783 3.173879,7.92013 8.260011,7.92013 0.104122,0.003 0.208305,-0.002 0.311764,-0.014 0.07079,0 0.127519,0.014 0.198306,0.014 3.414357,0 5.795009,-1.24655 7.310666,-3.82552 l -3.017751,-1.74307 c -1.006078,1.48753 -2.352036,2.60708 -4.278861,2.60708 -2.578459,0 -4.122724,-1.58694 -4.122724,-4.26481 v -0.70837 h 11.958014 v -2.94695 c 0,-4.73221 -3.102584,-7.77857 -7.920131,-7.77857 z m -0.25503,2.90479 c 2.352036,0.11346 3.76879,1.67178 3.76879,4.23618 v 0.70838 h -7.565697 v -0.41117 c 0,-2.8335 1.345958,-4.42044 3.796907,-4.5339 z m -18.574368,-2.89073 c -2.25265,0 -4.19352,0.93529 -5.21366,2.49362 l -0.25504,0.3966 v -2.4655 h -4.27886 v 23.9306 h 4.49123 v -8.35892 l 0.25503,0.38255 c 0.96341,1.43081 2.84806,2.28076 5.04397,2.28076 h 0.11346 0.0989 c 3.698006,0 7.424126,-2.40878 7.424126,-7.80668 v -3.0318 c 0,-3.88225 -2.29531,-7.80667 -7.452746,-7.80667 l -0.0281,-0.014 h -0.0989 z m -1.04826,3.37218 c 2.60708,0.0427 4.222136,1.81336 4.222136,4.64736 v 2.60657 c 0,2.8335 -1.629616,4.59063 -4.264806,4.64736 -2.45095,-0.0427 -4.1654,-1.91276 -4.1654,-4.57657 v -2.67787 c 0,-2.69192 1.72851,-4.59062 4.20807,-4.64735 z m 58.203162,-9.28015 -8.64256,24.14295 h 4.85971 l 1.65773,-5.17148 h 9.43578 v 0.0567 l 1.65773,5.12881 h 4.85971 l -8.65662,-24.14296 h -0.51007 l -0.014,-0.014 z m 2.57897,4.15134 3.61265,11.40578 h -7.25443 z m 28.63367,-0.75105 v -3.40029 h -14.82013 v 3.40029 h 5.1996 v 17.31375 h -5.1996 v 3.4003 h 14.82013 v -3.4003 h -5.1996 V 151.5799 Z m -48.76737,2.50818 h -0.12752 -0.0708 c -2.50767,0 -4.29291,0.84995 -5.17148,2.47956 l -0.26909,0.49601 v -2.55034 h -4.278865 v 17.7952 h 4.491225 v -10.598 c 0,-2.49362 1.34597,-3.92443 3.66939,-3.9671 2.22453,0.0427 3.4997,1.44537 3.4997,3.8682 v 10.6969 h 4.49122 V 160.846 c 0,-4.23619 -2.32343,-6.75842 -6.21974,-6.75842 z m -63.785802,-6.40449 c -6.61685,0 -10.73958,4.12323 -10.73958,10.7682 v 3.58454 c 0,6.64496 4.10867,10.76769 10.73958,10.76769 h 0.0994 0.0989 c 6.61685,0 10.73957,-4.12273 10.73957,-10.76769 v -3.58454 c 0,-6.64497 -4.12272,-10.7682 -10.73957,-10.7682 h -0.0989 z m 0.0994,3.59911 c 3.93898,0.0427 6.20567,2.5644 6.20567,6.92811 v 4.08055 c 0,4.36371 -2.26669,6.88594 -6.20567,6.92811 -3.93898,-0.0427 -6.20619,-2.5644 -6.20619,-6.92811 v -4.08055 c 0,-4.36371 2.26721,-6.88594 6.20619,-6.92811 z"
     id="path2"
     style="fill:#75ac9d;fill-opacity:1;stroke-width:0.502037"
     sodipodi:nodetypes="ccssssccsccssccscccsccscccccccccccscssscccccsscsscccccccccccccccccccccccccccccccccsccccccscsccsccsssscsssscscsscssc" />
  <style
     type="text/css"
     id="style1715">
	.st0{fill:#428BCA;}
	.st1{opacity:0.25;fill:url(#SVGID_1_);enable-background:new    ;}
	.st2{fill:#3674A8;}
	.st3{fill:#E6B35A;}
	.st4{fill:#FFFFFF;}
	.st5{opacity:0.9;}
	.st6{opacity:0.9;fill:#FFFFFF;enable-background:new    ;}
	.st7{fill:none;}
</style>
  <g
     id="g1831"
     transform="matrix(0.26458349,0,0,0.26458349,146.96512,-122.70392)">
    <path
       class="st2"
       d="M 179.34159,1100.1626 V 675.86257 l -29.3,-16.9 -277.8,-160.4 -60.29997,-34.8 -60.3,34.8 -277.8,160.4 -29.3,16.9 v 424.20003 l 29.3,17 281.3,162.4 56.9,32.8 56.89997,-32.8 281.1,-162.4 z m -705.49997,-15.9 V 693.76257 l 50,-28.9 288.1,-166.3 v 0 l 287.199968,165.8 50.900002,29.4 v 390.40003 l -338.09997,195.3 z"
       id="path1730"
       style="fill:#75ac9d;fill-opacity:1" />
  </g>
  <path
     d="m 91.008639,33.937948 c -11.477873,0 -21.675251,7.390861 -25.229671,18.299622 -7.37903,1.52107 -13.74754,6.142083 -17.48247,12.685338 -5.75656,9.949333 -4.44207,22.45714 3.26985,30.98496 -2.38093,7.142822 -1.56378,14.959252 2.23867,21.427202 5.72131,9.98459 17.23318,15.10153 28.498268,12.72059 4.989654,5.63132 12.162082,8.84205 19.685884,8.81238 11.47787,0 21.67524,-7.39086 25.22966,-18.29963 7.39086,-1.52853 13.75178,-6.14813 17.44721,-12.68533 5.79182,-9.949335 4.47733,-22.457141 -3.23334,-30.984961 v -0.03525 c 2.37947,-7.142708 1.5636,-14.964543 -2.23867,-21.462458 C 133.47147,45.451077 121.95835,40.332874 110.72977,42.713814 105.71743,37.09757 98.53622,33.901949 91.008639,33.937953 Z m 0,6.823012 -0.03525,0.03525 c 4.619603,0 9.061671,1.599045 12.614831,4.549094 -0.14228,0.07051 -0.42683,0.248041 -0.63962,0.355064 L 82.055246,57.746087 c -1.06645,0.604364 -1.70607,1.741323 -1.70607,2.985304 V 89.015602 L 71.359268,83.828149 V 60.446837 c -0.004,-10.859895 8.789488,-19.670467 19.649376,-19.687141 z m 25.169221,8.234452 c 7.04764,-0.01355 13.56378,3.745026 17.08082,9.852384 2.27392,3.979985 3.12632,8.634843 2.34443,13.147424 -0.14228,-0.107023 -0.42557,-0.248041 -0.60436,-0.355064 L 114.1054,59.557923 c -1.06915,-0.60464 -2.37699,-0.60464 -3.44613,0 L 86.176246,73.700029 V 63.323863 L 106.39473,51.633207 c 2.97273,-1.723476 6.34693,-2.633682 9.78313,-2.639054 z M 64.500988,59.735455 v 24.83808 c 0,1.243981 0.63963,2.345685 1.70607,2.985303 L 90.653573,101.66569 81.627146,106.8884 61.443918,95.232996 c -9.39171,-5.442886 -12.60279,-17.462479 -7.17681,-26.863958 2.29879,-3.984618 5.91925,-7.039373 10.23388,-8.634843 z m 46.833152,6.14688 20.21847,11.655402 c 9.41674,5.436753 12.61357,17.447218 7.17682,26.863953 l 0.0352,0.0353 c -2.30917,3.97999 -5.93409,7.0358 -10.23389,8.59959 V 88.197194 c 0,-1.243982 -0.63962,-2.380941 -1.70606,-2.984046 L 102.34297,71.069784 Z M 96.480643,74.446669 106.7863,80.416017 V 92.31946 L 96.480643,98.288808 86.176246,92.31946 V 80.416017 Z m 16.203247,9.381484 8.9899,5.187453 v 23.346054 c 0,10.87351 -8.81237,19.68588 -19.64937,19.68588 v -0.0352 c -4.584349,0 -9.061674,-1.59904 -12.579572,-4.54783 0.142275,-0.0705 0.462083,-0.2493 0.639618,-0.35633 l 20.893354,-12.04572 c 1.06645,-0.60436 1.74132,-1.74132 1.70481,-2.9853 z m -5.86359,15.279064 v 10.374903 l -20.218481,11.6554 c -9.416743,5.4015 -21.427211,2.20341 -26.863961,-7.17807 h 0.0352 c -2.30918,-3.94473 -3.12759,-8.63485 -2.3457,-13.14743 0.14229,0.10703 0.42684,0.24804 0.60437,0.35507 l 20.893388,12.08223 c 1.06915,0.60464 2.37699,0.60464 3.44613,0 z"
     style="fill:#75ac9d;fill-opacity:1;stroke-width:0.333134"
     id="path4569" />
</svg>
